<?xml version="1.0" encoding="utf-8"?>
<!DOCTYPE svg PUBLIC "-//W3C//DTD SVG 1.1//EN" "http://www.w3.org/Graphics/SVG/1.1/DTD/svg11.dtd" [
	<!ENTITY ns_flows "http://ns.adobe.com/Flows/1.0/">
]>
<svg xmlns="http://www.w3.org/2000/svg" xml:space="preserve" width="64" height="64">
  <linearGradient id="a" x1="854.1719" x2="899.4271" y1="-1160.0737" y2="-1205.3289" gradientTransform="matrix(1 0 0 -1 -844.7988 -1150.7012)" gradientUnits="userSpaceOnUse">
    <stop offset="0" stop-color="#bfa067"/>
    <stop offset="1" stop-color="#efca67"/>
  </linearGradient>
  <circle cx="32" cy="32" r="32" fill="url(#a)"/>
  <linearGradient id="b" x1="876.7988" x2="876.7988" y1="-1152.8921" y2="-1212.502" gradientTransform="matrix(1 0 0 -1 -844.7988 -1150.7012)" gradientUnits="userSpaceOnUse">
    <stop offset="0" stop-color="#f0c76d"/>
    <stop offset="1" stop-color="#fff3b0"/>
  </linearGradient>
  <path fill="url(#b)" d="M32 61.801c-16.428 0-29.805-13.379-29.805-29.805C2.195 15.568 15.572 2.191 32 2.191c16.43 0 29.805 13.377 29.805 29.805C61.801 48.422 48.422 61.801 32 61.801z"/>
  <path fill="#B48D61" d="M32 2c16.539 0 30 13.459 30 30 0 16.539-13.461 30-30 30S2 48.539 2 32C2 15.459 15.461 2 32 2m0 .4C15.676 2.4 2.4 15.68 2.4 32S15.68 61.602 32 61.602 61.602 48.321 61.602 32C61.602 15.676 48.32 2.4 32 2.4z"/>
  <path fill="#EFCA67" d="M51.57 23.225c-.105-3.012-2.023-4.42-4.82-5.041.836 1.82 1.27 3.201 4.82 5.041z"/>
  <path fill="#EFCA67" d="M40.25 52.859s2.078.104 2.992-.176c1.43-.441 6.277-.777 6.277-.777s-2.457 2.402-5.353 2.516c-2.681.094-6.104-.633-6.104-.633l2.188-.93z"/>
  <path fill="#EFCA67" d="M28.084 56.898c.316-.035 4.771-2.031 7.369-3.25 2.609-1.234 3.484-1.992 4.055-2.898 2.027-3.164 4.473-3.195 4.473-3.195s-.215 2.961-3.477 5.5c-1.363 1.063-1.77.672-3.746 1.523-1.984.852-5.754 3.164-5.754 3.164l-2.92-.844z"/>
  <path fill="#EFCA67" d="M54.555 48.789s-1.229 2.266-3.742 2.469c-.949.07-5.733.172-5.733.172s2.313-2.188 3.194-2.219c5.445-.117 6.281-.422 6.281-.422z"/>
  <path fill="#EFCA67" d="M56.996 42.129c-.379 2.941-1.137 5.738-7.668 6.254 0 0 1.977-2.5 3.133-3.102 2.281-1.164 4.535-3.152 4.535-3.152z"/>
  <path fill="#EFCA67" d="M49.781 39.266c2.359 2.771 1.664 5.672-1.477 8.945 0 0-.406-2.734.258-3.867.235-.399 1.145-3.672 1.219-5.078z"/>
  <path fill="#EFCA67" d="M52.199 44.289c4.465-1.918 5.266-5.621 5.313-9.492l-.254.609s-2.344 1.906-3.195 3.223c-.797 1.23-1.864 5.66-1.864 5.66z"/>
  <path fill="#EFCA67" d="M57.102 26.336c.023 1.137 1.806 7.229-2.457 10.352 0 0-.608-3.526 0-6.119.621-2.589 2.457-4.233 2.457-4.233z"/>
  <path fill="#EFCA67" d="M54.289 19.852s1.852 2.457 1.82 4.861c-.023 2.402-1.93 4.76-1.93 4.76-.646-2.668-.832-4.596-.414-6.225.262-1.039.571-2.152.524-3.396z"/>
  <path fill="#EFCA67" d="M52.664 22.992c1.57-3.252.414-5.779-2.609-8.057-.051 3.393 1.129 5.768 2.609 8.057z"/>
  <path fill="#EFCA67" d="M49.469 17.396s.438-2.205-.734-3.764c-.805-1.088-3.336-2.881-3.336-2.881s.156 2.26 1.25 3.871c.359.514 1.328 1.014 1.853 1.457.514.448.967 1.317.967 1.317z"/>
  <path fill="#EFCA67" d="M41.473 8.191c2.918 1.248 3.051 2.645 3.398 4.029-1.504-1.156-3.223-2.208-3.398-4.029z"/>
  <path fill="#EFCA67" d="M41.055 9.5c-1.453-.752-2.727-1.664-3.348-3.244 2.117.767 3.457 1.775 3.348 3.244z"/>
  <path fill="#EFCA67" d="M37.898 8.264c-.728-.531-1.074-1.305-3.363-.844.52.709 1.809.871 3.363.844z"/>
  <path fill="#EFCA67" d="M41.43 10.504c-.859-1.279-2.762-1.5-5.09-1.287 1.133 1.058 2.754 1.566 5.09 1.287z"/>
  <path fill="#EFCA67" d="M45.078 13.473c-2.664-.057-5.219-.205-6.105-1.732 3.3-.714 4.847.37 6.105 1.732z"/>
  <path fill="#EFCA67" d="M48.66 17.676s-.754-1.928-2.359-2.691c-.754-.365-3.816-.789-3.816-.789.759.928 1.423 2.057 2.816 2.525 1.207.412 2.375.562 3.359.955z"/>
  <path fill="#EFCA67" d="M53.309 29.832c.06-4.615-2.559-6.023-5.44-7.111 0 0 1.603 2.588 2.188 3.752.513 1.007 3.252 3.359 3.252 3.359z"/>
  <path fill="#EFCA67" d="M53.699 35.211s.66-1.787-.277-3.752c-.934-1.955-3.465-4.092-3.465-4.092s-.152 3.537 1.277 5.156c.547.618 2.465 2.688 2.465 2.688z"/>
  <path fill="#EFCA67" d="M50.398 32.469c2.738 2.242 2.969 5.484 1.672 9.367-2.015-2.695-2.172-5.93-1.672-9.367z"/>
  <path fill="#EFCA67" d="M17.252 18.184c-2.801.621-4.713 2.029-4.828 5.041 3.56-1.836 3.992-3.217 4.828-5.041z"/>
  <path fill="#EFCA67" d="M25.932 53.789s-3.42.727-6.1.633c-2.9-.121-5.352-2.516-5.352-2.516s4.844.336 6.279.77c.916.277 2.996.176 2.996.176l2.177.937z"/>
  <path fill="#EFCA67" d="M32.992 57.742s-3.771-2.305-5.748-3.164c-1.969-.852-2.381-.461-3.748-1.523-3.264-2.531-3.48-5.5-3.48-5.5s2.449.039 4.484 3.203c.564.906 1.436 1.664 4.043 2.898 2.602 1.219 7.059 3.215 7.379 3.25l-2.93.836z"/>
  <path fill="#EFCA67" d="M15.732 49.211c.871.039 3.188 2.219 3.188 2.219s-4.787-.094-5.732-.172c-2.512-.195-3.736-2.457-3.736-2.457s.831.293 6.28.41z"/>
  <path fill="#EFCA67" d="M11.535 45.281c1.16.59 3.133 3.09 3.133 3.09C8.141 47.859 7.385 45.07 7 42.117c.004.012 2.26 2 4.535 3.164z"/>
  <path fill="#EFCA67" d="M15.432 44.352c.664 1.133.26 3.859.26 3.859-3.139-3.273-3.832-6.164-1.484-8.945.079 1.406.991 4.679 1.224 5.086z"/>
  <path fill="#EFCA67" d="M9.936 38.629c-.852-1.316-3.184-3.223-3.184-3.223l-.26-.609c.051 3.871.848 7.574 5.309 9.492-.004 0-1.069-4.43-1.865-5.66z"/>
  <path fill="#EFCA67" d="M9.355 30.572c.613 2.588 0 6.116 0 6.116-4.268-3.119-2.48-9.215-2.463-10.349.001.001 1.844 1.645 2.463 4.233z"/>
  <path fill="#EFCA67" d="M10.236 23.252c.416 1.625.229 3.553-.416 6.221 0 0-1.904-2.354-1.936-4.756-.033-2.404 1.828-4.865 1.828-4.865-.052 1.248.261 2.357.524 3.4z"/>
  <path fill="#EFCA67" d="M13.951 14.936c-3.039 2.277-4.188 4.805-2.619 8.057 1.484-2.29 2.664-4.665 2.619-8.057z"/>
  <path fill="#EFCA67" d="M15.496 16.084c.527-.447 1.504-.947 1.852-1.461 1.1-1.607 1.252-3.871 1.252-3.871s-2.531 1.793-3.336 2.881c-1.172 1.563-.736 3.764-.736 3.764s.452-.866.968-1.313z"/>
  <path fill="#EFCA67" d="M19.129 12.221c.348-1.385.482-2.781 3.395-4.029-.176 1.82-1.887 2.872-3.395 4.029z"/>
  <path fill="#EFCA67" d="M26.287 6.256c-.611 1.58-1.895 2.496-3.34 3.244-.115-1.465 1.225-2.473 3.34-3.244z"/>
  <path fill="#EFCA67" d="M29.469 7.424c-2.293-.465-2.641.313-3.365.84 1.552.027 2.843-.131 3.365-.84z"/>
  <path fill="#EFCA67" d="M27.668 9.221c-2.332-.209-4.24.012-5.1 1.287 2.336.279 3.959-.233 5.1-1.287z"/>
  <path fill="#EFCA67" d="M25.035 11.74c-.895 1.527-3.451 1.676-6.107 1.732 1.252-1.361 2.789-2.441 6.107-1.732z"/>
  <path fill="#EFCA67" d="M18.699 16.725c1.389-.469 2.049-1.592 2.809-2.521 0 0-3.057.42-3.816.785-1.6.768-2.355 2.688-2.355 2.688.987-.39 2.151-.54 3.362-.952z"/>
  <path fill="#EFCA67" d="M13.947 26.48c.584-1.168 2.186-3.752 2.186-3.752-2.885 1.084-5.5 2.492-5.438 7.107 0 .001 2.741-2.355 3.252-3.355z"/>
  <path fill="#EFCA67" d="M12.768 32.527c1.439-1.624 1.285-5.16 1.285-5.16s-2.537 2.137-3.473 4.092c-.936 1.965-.283 3.752-.283 3.752s1.92-2.066 2.471-2.684z"/>
  <path fill="#EFCA67" d="M11.928 41.836c-1.299-3.891-1.057-7.125 1.68-9.367.496 3.437.343 6.672-1.68 9.367z"/>
  <path fill="#B48D61" d="M29.58 26.813c-.709.359-1.588.516-2.271.516-.385 0-.805-.072-1.084-.168-.35.504-.588 1.023-.637 1.527-.035.42.18.713.553.725.635.012 1.287-.496 1.971-1.217.193-.191.396-.375.576-.375.229 0 .277.051.156.195-.215.26-.371.48-.6.793-.205.268-.348.467-.709.939v.012c.289-.16.709-.412 1.141-.736.313-.227.564-.432.84-.672.072-.064.133-.119.168-.084.023.023-.012.084-.156.221-.143.135-.455.383-.719.576-.492.367-1.008.672-1.404.883-.576.832-.725 1.037-1.492 1.941-.947 1.104-2.176 1.943-2.836 1.943-.252 0-.541-.104-.504-.504.061-.695 1.211-1.492 1.863-1.9 1.072-.66 1.361-.756 2.309-1.348.229-.313 1-1.385 1-1.385-.496.492-1.092.846-1.611.881-.689.061-1.209-.205-1.252-.863-.041-.504.238-1.205.756-1.842-.385-.252-.66-.658-.66-1.139 0-.949.887-1.504 1.875-1.504.541 0 1.096.168 1.492.588.709-.313 1.355-.469 1.775-.469s.949.145.949.697c.003.665-.673 1.337-1.489 1.769zm-5.16 4.771c-.637.408-1.549 1.217-1.535 1.768 0 .209.107.289.275.313.191.026.443-.062.748-.24.408-.252 1.008-.844 1.539-1.553.445-.588.832-1.092 1.168-1.6-.703.46-1.088.591-2.195 1.312zm.672-5.852c0 .443.264.816.611 1.059.244-.275.672-.723 1.072-1.023.457-.348.916-.635 1.361-.855-.396-.359-.865-.541-1.373-.541-.851-.001-1.671.491-1.671 1.36zm5.027-1.252c-.432 0-1 .156-1.635.527.131.191.244.469.275.648.049.244.023.352 0 .352-.031.012-.02-.096-.092-.299-.072-.232-.203-.445-.348-.602-.4.26-.82.602-1.252 1.029-.293.287-.557.615-.771.943.311.092.664.141 1 .141.672 0 1.406-.168 2.139-.564.756-.4 1.492-1.145 1.492-1.637-.003-.442-.447-.538-.808-.538z"/>
  <path fill="#B48D61" d="M29.557 28.443c-.084.076-.133.102-.156.076-.025-.035.035-.1.088-.143.084-.09.252-.217.367-.301.156-.107.328-.217.58-.348.348-.18.721-.313 1-.324.084 0 .18 0 .18.047 0 .025-.035.025-.131.072-.293.129-.533.336-.869.66-.348.348-.676.816-.699 1.061-.008.115.041.199.168.199.264 0 .748-.324 1.119-.734.014-.121.061-.301.217-.506.133-.18.301-.275.385-.311.035-.084.035-.217.035-.277 0-.131-.047-.168-.012-.191.053-.02.123.023.172.072.096.096.168.244.145.42-.037.293-.313.641-.688.977.047.023.18.012.227 0 .109-.025.24-.084.408-.205.16-.107.256-.191.389-.311.107-.098.168-.156.204-.121.037.031-.035.107-.156.217-.107.096-.227.203-.383.311-.193.133-.336.193-.461.217-.104.023-.252.023-.324-.023-.311.24-.875.588-1.371.588-.373 0-.6-.18-.588-.533.012-.24.156-.527.383-.768l-.012-.012c-.086.076-.129.125-.217.191z"/>
  <path fill="#B48D61" d="M33.061 27.977c-.18.156-.36.324-.492.443-.071.064-.106.076-.132.039-.012-.039.025-.074.061-.107.047-.051.504-.443.875-.76.313-.4.901-1.127 1.422-1.721.406-.475.897-1.008 1.435-1.486.141-.133.272-.205.43-.205.117 0 .18.049.18.084-.227.229-1.281 1.393-1.793 1.992-.801.98-1.672 2.096-1.924 2.648-.035.084-.107.252-.023.328.084.055.264-.016.373-.076.16-.084.328-.205.496-.336.215-.168.371-.301.527-.443.047-.049.145-.133.18-.098.023.025-.012.076-.086.145-.141.145-.441.408-.73.625-.244.184-.684.479-1.084.479-.239 0-.382-.104-.371-.324.012-.287.313-.756.672-1.215l-.016-.012z"/>
  <path fill="#B48D61" d="M36.617 27.404c.227.035.313.229.266.408h.008c.375-.541.926-1.229 1.539-1.932.418-.492.918-1.014 1.43-1.492.134-.133.277-.205.445-.205.117 0 .168.037.18.084-.319.309-.922.973-1.366 1.484-.397.457-.806.947-1.5 1.84-.375.48-.892 1.191-1 1.385-.086.143-.086.24-.031.275.06.049.181 0 .272-.053.117-.055.349-.211.539-.367.254-.203.445-.373.582-.492.074-.064.129-.119.168-.084.035.035-.03.096-.16.217-.155.143-.444.395-.676.576-.242.195-.633.479-1.03.479-.228 0-.337-.104-.353-.252-.008-.131.063-.299.172-.432l-.016-.012c-.313.275-.867.672-1.32.695-.266.018-.539-.092-.492-.479.023-.182.117-.373.336-.625l-.016-.012c-.031.031-.082.084-.156.145-.047.031-.082.059-.104.031-.022-.031.06-.129.19-.248.039-.039.22-.18.336-.264.121-.084.313-.217.556-.336.42-.218.865-.386 1.201-.334zm-1.152.871c-.492.48-.699.797-.672.953.012.084.07.115.152.115.229 0 .688-.26 1.016-.564.387-.34.813-.855.828-1.047.008-.148-.086-.213-.219-.213-.242.001-.672.329-1.105.756z"/>
  <path fill="#B48D61" d="M21.359 39.82c-.66 0-1.383-.18-1.416-.867-.012-.398.289-.82.721-.82.275 0 .48.172.455.414-.023.188-.143.313-.264.406-.107.109-.203.172-.227.305-.049.234.264.414.867.414 1.031 0 2.656-.742 3.92-1.68 1.104-.805 2.164-1.891 3.352-2.996-.576-.105-1.336-.191-2.379-.191-1.313 0-2.572.492-2.801 1.578-.096.477.049 1.082.82 1.344.096.039.156.023.145.063-.018.03-.102.047-.232.008-.701-.202-1.061-.813-1-1.452.119-1.117 1.211-1.853 3.088-1.781 1 .039 1.924.233 2.463.313.061-.059.145-.141.229-.215.113-.098.268-.23.393-.223.18.031.156.125-.012.313-.061.078-.109.121-.168.195.299.051.652.074.879.063.324-.012.816-.047 1.24-.219.4-.164.652-.359.801-.547.156-.195.072-.266.131-.291.084-.027.098.166.037.299-.072.156-.18.328-.457.602-.58.603-1.443 1.539-2.008 2.25-.627.781-1.275 1.633-1.287 2.082 0 .099.059.156.156.156.191 0 .527-.18.916-.492.24-.188.443-.367.576-.492.059-.051.107-.098.143-.065.025.039-.023.082-.107.172-.156.142-.371.336-.672.578-.24.194-.652.47-.988.478-.301.016-.527-.095-.539-.438-.014-.438.371-1 .887-1.664.48-.625 1.385-1.604 1.996-2.125h-.012c-.805.603-1.623 1.272-2.416 1.961-.916.789-1.611 1.414-2.295 2.063-.145.133-.205.233-.313.156-.096-.078-.037-.228.035-.32.697-.978 1.9-2.992 2.549-3.805h-.012c-.445.438-2.01 1.983-3.08 2.766-1.19.887-2.848 1.707-4.102 1.707h-.012zm8.08-3.453c.664-.539 1.24-.984 1.865-1.414v-.016c-.348.133-.793.18-1.152.19-.277 0-.625-.026-.924-.065-.588.852-1.457 2.457-2.045 3.242.469-.421 1.428-1.265 2.256-1.937z"/>
  <path fill="#B48D61" d="M32.088 38.945c.232-.156.508-.375.736-.578.072-.063.107-.078.133-.047.023.031-.025.094-.098.156-.156.141-.54.453-.756.602-.504.336-.951.492-1.359.492-.443 0-.652-.172-.637-.484.012-.242.121-.449.361-.742l-.012-.016c-.037.039-.17.156-.24.219-.061.047-.098.055-.125.031-.02-.031.027-.078.076-.133.156-.141.264-.228.443-.359.133-.094.361-.238.588-.359.35-.18.709-.336 1.033-.336h.012c.264 0 .358.172.348.328-.021.313-.404.547-.764.727-.352.173-.76.313-1.035.392-.049.095-.072.203-.072.272 0 .181.096.281.275.281.157 0 .569-.086 1.093-.446zm-.408-.601c.301-.211.48-.461.496-.625.012-.109-.035-.172-.145-.172-.107 0-.287.117-.527.352-.195.181-.496.563-.641.806.241-.064.565-.197.817-.361z"/>
  <path fill="#B48D61" d="M34.938 37.406c.228.031.313.227.263.406h.012c.375-.539.931-1.228 1.539-1.938.418-.492.914-1.013 1.427-1.492.133-.133.28-.202.44-.202.125 0 .176.038.188.086-.32.313-.923.977-1.367 1.491-.402.453-.806.94-1.508 1.836-.367.484-.888 1.195-.992 1.384-.086.147-.086.241-.039.28.063.048.18 0 .277-.06.12-.055.348-.211.543-.366.25-.203.444-.379.577-.492.07-.06.134-.121.164-.082.039.031-.022.091-.155.22-.156.141-.445.391-.673.569-.241.195-.637.483-1.03.483-.23 0-.336-.108-.353-.25-.008-.133.063-.305.164-.438l-.008-.008c-.313.273-.867.672-1.322.695-.265.016-.541-.094-.492-.484.023-.18.121-.367.337-.625l-.013-.008c-.035.031-.084.086-.155.141-.048.039-.084.063-.107.039-.023-.039.061-.129.191-.25.036-.039.217-.18.336-.266.121-.082.313-.219.557-.336.417-.216.863-.387 1.199-.333zm-1.159.875c-.492.477-.695.797-.672.953.012.082.072.117.156.117.229 0 .684-.267 1.01-.563.387-.345.819-.858.828-1.047.016-.156-.082-.224-.211-.224-.242.006-.671.335-1.111.764z"/>
  <path fill="#B48D61" d="M39.316 37.406c.254-.016.276.047.156.188-.156.18-.418.484-.673.797-.155.188-.313.398-.418.586-.086.148-.086.242-.039.281.063.047.181 0 .273-.059.125-.051.352-.207.543-.363.254-.203.44-.375.582-.492.069-.063.129-.125.163-.086.039.031-.022.09-.155.219-.156.142-.444.392-.672.57-.242.195-.642.484-1.035.484-.229 0-.34-.109-.349-.25-.016-.133.056-.305.164-.438l-.008-.009c-.313.272-.867.672-1.324.694-.262.017-.539-.094-.491-.483.026-.18.12-.366.336-.625l-.013-.008c-.039.03-.086.086-.155.142-.048.039-.086.063-.109.039-.022-.039.044-.105.173-.228.034-.039.241-.203.362-.289.113-.082.324-.22.556-.336.469-.242.887-.392 1.198-.337.242.031.324.255.255.453.286-.293.489-.45.68-.45zm-2.089.875c-.492.477-.699.797-.672.953.008.082.074.117.152.117.23 0 .684-.267 1.012-.563.383-.345.816-.858.828-1.047.016-.156-.082-.224-.215-.224-.246.006-.676.335-1.105.764z"/>
  <path fill="#B48D61" d="M40.281 37.977c-.18.156-.359.328-.492.445-.07.063-.109.078-.133.039-.008-.039.023-.07.063-.109.047-.047.508-.444.875-.758.313-.398.91-1.121 1.422-1.719.406-.477.898-1.012 1.43-1.492.142-.133.273-.203.431-.203.121 0 .181.047.181.086-.23.23-1.281 1.396-1.789 1.992-.806.977-1.672 2.094-1.922 2.648-.035.086-.109.254-.023.328.086.055.266-.017.371-.078.16-.078.324-.203.496-.336.219-.164.375-.297.531-.445.047-.047.141-.133.18-.094.022.027-.017.074-.086.141-.148.148-.445.418-.734.625-.246.188-.688.484-1.086.484-.242 0-.383-.109-.367-.328.008-.289.313-.758.672-1.211l-.02-.015z"/>
</svg>